<?xml version="1.0" encoding="UTF-8" standalone="no"?>
<!-- Created with Inkscape (http://www.inkscape.org/) -->

<svg
   version="1.1"
   id="svg1"
   width="2933.3333"
   height="1954.6667"
   viewBox="0 0 2933.3333 1954.6667"
   sodipodi:docname="143999811_6ceecafe-3358-4706-8090-83ec634657d8.eps"
   xmlns:inkscape="http://www.inkscape.org/namespaces/inkscape"
   xmlns:sodipodi="http://sodipodi.sourceforge.net/DTD/sodipodi-0.dtd"
   xmlns="http://www.w3.org/2000/svg"
   xmlns:svg="http://www.w3.org/2000/svg">
  <defs
     id="defs1" />
  <sodipodi:namedview
     id="namedview1"
     pagecolor="#ffffff"
     bordercolor="#000000"
     borderopacity="0.25"
     inkscape:showpageshadow="2"
     inkscape:pageopacity="0.0"
     inkscape:pagecheckerboard="0"
     inkscape:deskcolor="#d1d1d1">
    <inkscape:page
       x="0"
       y="0"
       inkscape:label="1"
       id="page1"
       width="2933.3333"
       height="1954.6667"
       margin="0"
       bleed="0" />
  </sodipodi:namedview>
  <g
     id="g1"
     inkscape:groupmode="layer"
     inkscape:label="1">
    <g
       id="group-R5">
      <path
         id="path2"
         d="M 22000,0 H 0 V 14660 H 22000 V 0"
         style="fill:#ffffff;fill-opacity:1;fill-rule:nonzero;stroke:none"
         transform="matrix(0.13333333,0,0,-0.13333333,0,1954.6667)" />
      <path
         id="path3"
         d="m 19000,4514.5 c -17.4,-4.1 -36.1,-8.5 -55.9,-13.2 -19.8,-4.7 -40.2,-10.9 -61.7,-16.8 -42.9,-12.3 -89.6,-24.8 -137.2,-41.1 -28.4,-9.4 -57.6,-19 -87,-29.2 41.4,46.1 81.2,91.4 116.7,133.3 23,27.1 44.1,52.7 62.7,76.2 117.6,-36.5 218.5,-64 297.2,-84.1 l -46.1,-6.1 c -23.8,-3.9 -53.7,-11.1 -88.7,-19 z m -991.4,-413.6 c -25.4,-15.3 -49.9,-32 -75,-47.6 l -75.3,-47.1 c -24.8,-16.2 -49.8,-32.1 -74.9,-47.8 -58.2,-36.8 -126,-81.6 -199.9,-133.7 68.8,75.7 159.3,174.1 260.5,283.3 61.4,66.1 126.6,136.3 193.1,207.9 33.3,35.7 66.9,71.7 100.5,107.8 16.8,18 33.6,36 50.4,54 l 25.1,26.9 5.3,5.3 c 12.7,12.7 23.8,23.7 32.9,32.3 1,1.2 2.3,2.2 4,2 1.7,-0.2 3.3,-1.4 4.2,-3.1 1.9,-3.7 -1.1,-7.7 -2.1,-11.2 -2.6,-6.6 -5.1,-13 -7.4,-19 -0.7,-1.7 -0.9,-2.2 -1.2,-2.8 l -0.9,-1.9 c -0.5,-1 -1.1,-2 -1.6,-3 -0.4,-0.8 -0.8,-1.6 -1.2,-2.3 l -0.2,-0.2 v -0.1 l -0.7,-2.1 c -1.2,-3.4 -2.3,-6.8 -3.5,-10.2 -4.3,-12.9 -8.5,-25.5 -12.5,-37.7 -33.4,-100.5 -58.8,-176.7 -73.8,-221.8 -1.9,-8.3 -4.2,-16.5 -5.5,-23.5 -0.5,-6.2 -0.9,-12 -1.4,-17.5 -0.1,-0.9 -0.1,-1.6 -0.1,-2.4 -23.2,-12.9 -44.7,-25.4 -63.4,-37.6 -25,-15.8 -50.2,-31.5 -75.4,-46.9 z M 16628.3,2925.1 c 2.9,12.1 5.9,24 8.9,36.3 5.9,23.9 11.8,48.2 17.9,72.6 3,12.3 6,24.5 9,36.9 2.6,9.5 5.5,19 8.3,28.5 0.5,-1.5 0.8,-3 1.4,-4.5 9,-25.5 24.8,-45.9 44.2,-60.7 -30.7,-36.2 -60.6,-72.6 -89.7,-109.1 z m 997.5,1721.1 c -75.8,-105 -150.9,-210.7 -224.8,-317.3 -90,-125.3 -203.4,-286.7 -323,-468.2 -117.4,-178.8 -241.7,-376.1 -351.8,-580 61.3,191.3 135.2,385.1 221.8,561.3 11.4,22.8 22.8,45.6 34,68.1 5.5,11.5 11.5,22.3 17.6,33.2 6,10.8 12.1,21.7 18,32.4 12.1,21.5 23.5,43.2 35.9,63.9 12.5,20.4 24.9,40.7 37.2,60.7 11.9,20.3 25,38.9 37.6,57.7 l 9.4,14 c 4.6,6.8 9.2,13.5 13.8,20.2 6.2,8.7 13,17.2 19.9,25.5 6.9,8.5 13.7,16.8 20.4,25.2 13.5,16.6 27,33.1 40.3,49.5 l 9.9,12.2 10.8,12.1 c 7.2,8.1 14.4,16.1 21.5,24 28.3,31.4 54.6,63.6 83.4,92.4 151.5,151.6 268.1,213.1 268.1,213.1 z m -925.1,654.98 c 1.4,-0.43 2.8,-0.87 4.3,-1.39 10.7,-2.34 20.2,-5.18 34.3,-6.05 3.4,-0.22 6.1,-0.88 10,-0.74 l 11.7,0.35 c 7.1,-0.35 16.8,1.92 25.5,3.29 18.9,4.46 40.6,14.3 61.2,22.52 68.4,27.81 133.5,54.25 195.5,79.43 18.5,7.45 36.5,14.71 54,21.8 3.2,1.21 6.2,2.38 9.2,3.53 11.1,3.89 20.1,7.7 27.2,8.83 1.3,-0.85 2.4,-1.68 3.7,-2.53 0.1,-0.09 0.2,-0.18 0.4,-0.26 0.2,-0.88 0.3,-1.83 0,-2.79 -0.7,-2.58 -3.1,-4.26 -4.7,-6.15 -3.2,-3.38 -6.4,-6.61 -9.4,-9.7 -5.6,-5.63 -10,-9.57 -13.4,-12.21 -27.4,-33.6 -52.8,-64.79 -77.2,-94.72 -12.8,-15.87 -25.4,-31.41 -37.8,-46.77 -19.7,-24.98 -39.2,-49.67 -58.7,-74.3 -34.9,-44.37 -69.6,-88.85 -104.6,-134.03 l -0.1,0.05 c -31.8,54.5 -72.4,127.81 -115.2,217.94 -5.3,11.05 -10.6,22.36 -15.9,33.9 z m -116.3,281.36 c -11.2,29.53 -21.6,60.13 -32.7,91.06 -2.5,7.46 -5,14.95 -7.6,22.46 l -3.6,9.02 c -2.4,6.43 -4.9,12.9 -7.4,19.41 -9.9,26.62 -20,56.3 -29.9,88.41 -9.9,32.09 -19.6,66.58 -28.6,102.43 -4.5,17.92 -8.7,36.18 -12.7,54.6 -0.5,2.24 -1.3,4.72 -0.2,6.83 1,2.06 3.2,3.32 5.2,3.12 2.1,-0.15 3.4,-1.96 4.9,-3.14 l 4.5,-3.93 18.1,-16.09 c 28.7,-25.23 57.4,-53.95 85.5,-79.04 14.7,-13.55 28.9,-26.98 42.4,-40.07 6.7,-6.47 13.4,-12.91 20,-19.33 l 19.5,-18.01 9.3,-8.68 4.6,-4.27 11.2,-9.65 c 15.2,-13.03 30.5,-26.07 45.7,-39.13 15.3,-13.06 30.6,-26.15 46,-39.29 0.8,-0.7 1.6,-1.34 2.5,-2.03 -2.4,-3.93 -4.8,-7.96 -7.1,-11.85 -43.5,-72.29 -84.3,-139.93 -121.3,-201.27 -8.1,-13.96 -12.5,-26.19 -15.3,-37.37 -17.8,43.2 -35.5,88.5 -53,135.81 z m 236.4,-95.36 c 1.7,4.19 4.3,7.75 6.2,11.46 8.5,14.93 15.5,27.41 21.1,37.22 1.1,1.9 1.4,2.34 1.6,2.78 7.1,12.27 13.7,24.1 20,35.78 1.6,2.95 3.2,5.85 4.7,8.72 l 1.2,2.18 2.2,3.87 c 1.4,2.61 2.9,5.19 4.3,7.76 2.7,4.82 5.3,9.36 7.9,14.04 11.2,-8.79 22.4,-17.56 33.7,-26.46 22.6,-17.52 45.3,-35.39 68.9,-52.83 -3.2,-1.33 -6.5,-2.72 -9.7,-4.04 -14,-5.8 -27.7,-11.5 -41.1,-17.08 -6.4,-2.73 -12.6,-5.41 -18.8,-8.03 -25.5,-10.97 -48.8,-21.02 -69.8,-30.04 -5.5,-2.02 -10.6,-5.49 -16.3,-5.64 -5.7,-0.29 -10.8,2.74 -13.8,6.74 -3.1,4.08 -3.8,9.28 -2.3,13.57 z m 641.9,-259.06 c -57.3,-27.04 -115.5,-54.51 -176,-83.04 -41.6,-20.04 -84.3,-40.6 -128.6,-61.9 -16,-7.68 -32.2,-15.69 -49.8,-24.72 -12.3,-6.28 -24.5,-12.54 -36.5,-18.7 -6.1,-3.08 -12.2,-6.39 -18.4,-9.28 -6.5,-2.8 -14.2,1.2 -16.2,7.13 -1.2,2.9 -1,6.22 0.4,8.84 1.5,2.59 3.5,4.8 5.2,7.2 3.5,4.75 7,9.39 10.3,13.93 7,9.29 13.5,18.11 19.6,26.31 10.5,13.96 20.9,27.76 31.1,41.38 23.9,31.19 47.5,61.98 70.7,92.31 29.7,38.62 59,76.66 87.7,114.06 1.3,1.68 2.6,3.32 3.9,4.99 50,-30.75 99.9,-61.41 149.4,-91.85 15.8,-8.92 31.5,-17.78 47.2,-26.66 z m 78,-440.43 c 4.9,7.68 11.5,17.48 20.1,29.55 17.1,24.05 42.3,57.58 74.4,98.62 8.3,10.58 16.7,21.25 25.2,31.98 l 13.4,16.83 c 9.6,11.76 19.3,23.55 29,35.37 18.5,22.21 37.1,44.54 55.6,66.83 18.2,-9.41 36.4,-18.82 54.4,-28.14 12.4,-6.36 24.7,-12.8 37.1,-19.1 -1.3,-0.93 -2.6,-1.85 -3.8,-2.73 l -0.7,-0.58 -2.8,-2.35 -5.5,-4.66 c -3.7,-3.1 -7.4,-6.17 -11,-9.2 -58.3,-48.74 -107.5,-88.85 -125,-101.11 -12.9,-9.12 -27.6,-21.11 -49.2,-40.62 -11.9,-10.64 -25.6,-22.96 -40.9,-36.75 -8.1,-7.25 -16.7,-14.88 -25.7,-22.86 -4.6,-4.1 -9.3,-8.28 -14.1,-12.56 -4.9,-4.09 -10.1,-9.44 -14.3,-11.93 -9.4,-5.94 -21.3,-1.64 -21.7,3.05 0.5,3.56 3.3,6.36 5.5,10.36 z m -384.9,-188.99 c -4.3,3.9 -8.5,7.8 -12.7,11.7 -4.4,4.1 -8.9,8.3 -13.3,12.4 -4.3,4.2 -8.2,8.4 -12.2,12.5 -10.1,10.5 -20,20.7 -29.7,30.71 -7.6,8.65 -15,17.13 -22.2,25.41 -7.1,8.35 -14.4,16.23 -21,24.4 -6.6,8.35 -13,16.5 -19.2,24.43 -6.2,7.93 -12.3,15.64 -18.2,23.13 -5.7,7.66 -11,15.42 -16.3,22.75 -5.5,7.94 -10.9,15.44 -16.1,22.74 2.5,1.2 4.9,2.38 7.4,3.58 22.2,10.88 45,22.01 68.2,33.38 46.6,22.78 95.1,46.5 145.4,71.09 108.1,52.73 231.3,112.86 363.8,177.49 l 11.8,5.78 2.5,1.21 0.2,0.07 0.8,0.31 1.4,0.57 2.6,1 2.2,0.8 c 0.6,0.62 1.9,-0.25 0.9,-1.38 l -4,-4.08 -0.8,-0.77 -0.4,-0.36 -0.2,-0.16 -0.1,-0.08 -4.2,-5.05 c -43.9,-51.95 -87.7,-103.79 -131.2,-155.4 -96.4,-114.14 -191.8,-227.22 -285.4,-338.17 z m 1040.3,261.93 c 25.4,-10.7 50.5,-21.49 75.3,-32.05 -250.1,-268.88 -731,-786.08 -1107.6,-1191.08 28.3,45.8 58.3,93.7 89.8,143 125.9,197.8 276,418.7 426.2,631.3 75.2,106.2 150.5,210.3 222.7,308.46 37.1,50.15 73.3,98.94 108,145.87 12.2,16.86 20.9,42.87 19.6,68.01 55.9,-26.16 111.1,-51.23 166,-73.51 z m 537,-203.43 c -56.3,-40.9 -127,-95.1 -214.5,-164.8 l -54.4,-47.8 -13.6,-11.9 -6.8,-6 c -0.9,-0.6 -1.1,-0.6 -1.7,-0.9 -2.1,-0.9 -4,-1.6 -5.7,-2.1 -6.1,-2.8 -12.7,-6.1 -16.3,-6.8 -1,-0.1 -1.5,-0.6 -2.5,0 -1.1,0.7 -2.1,3.9 -0.6,6.5 1.9,3.8 3.9,7.7 5.8,11.6 0,-1.4 -0.4,-3.4 -0.9,-5.5 19.1,58.5 37.7,115.6 55.5,170 11.3,35.2 22.4,69.55 33.1,102.8 3.1,9.86 6.5,20 9.3,29.36 74.8,-27.61 146.2,-52.36 213.3,-74.46 z m -8943.06,1796.08 -24.62,44.94 c -16.83,29.75 -31.53,60.48 -47.19,90.71 -29.68,61.2 -58.08,122.81 -82.65,185.55 -25.63,62.36 -46.91,125.9 -67.31,189.23 -18.76,63.77 -36.73,127.41 -50.05,191.51 -14.61,63.91 -24.67,128.16 -33.44,190.63 -1.66,15.8 -3.32,31.57 -4.97,47.3 -1.58,15.73 -3.64,31.37 -4.36,47.14 -1.88,31.47 -4.71,62.7 -4.97,93.97 -3.77,124.86 3.41,247.61 20.17,365.36 34.05,235.66 104.67,450.33 192.23,630.26 43.72,90.09 91.56,171.71 140.55,244.53 49.15,72.78 100.24,135.97 149.02,191.26 100.35,112.58 214.15,211.44 338.85,292.18 l 47.1,29.71 48.4,27.35 c 16,9.53 32.7,17.54 49.2,25.82 16.6,8.02 33,17.27 49.7,24.35 66.4,30.45 135.6,55.95 206.5,75.67 80.5,23.06 174.6,41 278.7,48.64 104,7.34 218.5,3.12 335.6,-21 116.9,-24.24 236.8,-67.71 345.2,-138.79 27.4,-17.28 53.4,-37.19 79.3,-57.65 12.4,-11.06 24.9,-22.19 37.4,-33.37 6.2,-5.66 12.8,-10.91 18.8,-16.91 l 17.7,-18.48 c 48.5,-47.93 91.2,-104.61 130.3,-165.7 39.7,-60.78 72.2,-128.93 100.7,-200.29 28.9,-71.28 50.5,-147.72 67.2,-226.46 l 6.2,-29.64 3,-14.87 2.3,-15.07 c 3.2,-20.12 6.3,-40.29 9.5,-60.51 4.2,-40.83 9.5,-81.78 11.1,-123.39 l 1.9,-31.16 c 0.6,-10.41 0.4,-20.87 0.6,-31.32 0,-20.9 1.1,-41.87 0.4,-62.86 -0.7,-21 -1.3,-42.04 -2,-63.12 -1.1,-21.18 -3.1,-42.58 -4.5,-63.92 -28,-341.96 -149,-685.59 -334,-988.18 -91.6,-151.98 -199.2,-293.76 -315.5,-424.39 -58.1,-65.35 -119.2,-127.25 -181.6,-186.53 -31,-29.8 -63.1,-58.18 -94.8,-86.55 -32.4,-27.6 -64.4,-55.35 -97.4,-81.46 -65.5,-52.79 -131.9,-102.73 -199.4,-148.74 -16.7,-11.81 -33.6,-23.05 -50.6,-34.1 -17,-10.96 -33.4,-22.59 -50.8,-32.9 -34.5,-21.08 -68.7,-41.96 -102.5,-62.64 -8.5,-5.12 -16.9,-10.48 -25.4,-15.35 -8.7,-4.8 -17.3,-9.59 -25.9,-14.36 -17.2,-9.56 -34.3,-19.06 -51.3,-28.51 -17,-9.47 -34,-18.88 -50.8,-28.24 -16.8,-9.38 -34.2,-17.52 -51.2,-26.27 -34,-17.21 -67.7,-34.21 -100.9,-51 -33.9,-15.56 -67.4,-30.92 -100.4,-46.08 -16.5,-7.52 -32.8,-15.25 -49.2,-22.46 -3.7,-1.53 -7.3,-3.04 -11,-4.58 -167.7,173.12 -319.6,367.19 -442.95,576.42 z M 19780.4,4491.9 c 41.2,22.5 48.8,54.7 41.8,87 -14.7,66 -89.9,121.41 -178.5,135.76 -349.8,61.44 -618.2,142.64 -831,216.61 -53.1,19.05 -103.1,36.74 -150,54.41 -46.3,19.16 -89.8,37.19 -130.9,54.21 -20.4,8.63 -40.3,17.01 -59.6,25.15 -9.7,4.1 -19.2,8.14 -28.6,12.12 -9.2,4.35 -18.2,8.64 -27.2,12.88 -35.7,17.07 -69.4,33.16 -101.3,48.44 -31.9,15.45 -62,30.07 -90.7,44.02 -28.2,15.11 -55,29.5 -80.8,43.33 -51.5,27.6 -98.9,52.98 -144.6,77.5 -23.2,13.28 -46,26.16 -68.9,38.82 -1,6.25 -3.5,13.23 -7.5,19.58 -6.9,10.94 -17.7,20.2 -27.2,23.55 -4.8,1.99 -8.6,2.03 -12,1.76 l -10.4,-1.2 c -6.6,-0.7 -13.2,-1.41 -19.7,-2.11 -18.8,9.89 -37.7,19.73 -57.2,29.59 -23.2,12.75 -47,25.66 -71.8,38.72 -19.6,11.61 -57.7,34.27 -114.5,67.95 -28.7,16.17 -60.4,37.81 -97.5,61.12 -36.8,23.54 -78.3,49.97 -124.2,79.3 -45.3,30.36 -94.2,64.88 -148,101.79 -13.5,9.26 -27.2,18.71 -41.1,28.35 -7,4.83 -14.1,9.72 -21.2,14.65 -6.9,5.18 -13.9,10.42 -21,15.7 -28.3,21.11 -57.7,43.03 -88.1,65.74 -15.3,11.53 -31,23.08 -46.9,34.9 -0.3,24.81 -12.2,32.32 -28.4,30.89 -3.2,-0.27 -6.5,-1.01 -9.8,-1.95 -3.1,2.35 -6.1,4.64 -9.2,7.03 -31.7,25.5 -64.4,51.85 -98.1,79.03 -17.2,13.81 -34.6,27.72 -52.1,41.73 -8.7,7.02 -17.5,14.07 -26.3,21.14 -8.7,7.49 -17.4,15.01 -26.2,22.55 -17.5,15.15 -35.1,30.4 -52.9,45.77 -17.8,15.59 -35.8,32.39 -53.9,48.71 -72.5,65.94 -147.1,133.8 -223.8,203.57 -21.4,12.25 -43.4,24.84 -65.9,37.74 -5.7,3.22 -11.3,6.47 -17.1,9.73 l -8.5,4.91 c -2.6,1.32 -6.6,4.22 -7.2,3.33 -5.4,-0.35 -10.9,-0.71 -16.4,-1.07 -22,-1.56 -44.9,-3.19 -68.7,-4.87 -11.8,-0.91 -23.9,-1.83 -36.1,-2.77 -6.1,-0.49 -12.3,-0.98 -18.5,-1.47 l -9.3,-0.76 -4.7,-0.38 c -1.6,-0.07 -2.2,-0.79 -4.6,-1.86 -4.2,-2.18 -11,-6.14 -15.9,-9.35 -5.2,-3.43 -6.1,-4.31 -8.4,-6.06 -4.1,-3.07 -8.3,-6.44 -12.6,-10.32 l -6.4,-5.65 -6.5,-6.65 -6.5,-6.69 c -2.2,-2.31 -4.4,-5.4 -6.6,-8.07 l -6.5,-8.32 c -2.2,-2.79 -4.4,-5.34 -6.5,-9.19 -4.2,-7.08 -8.4,-14.19 -12.6,-21.33 -2.3,-3.09 -4,-8.14 -5.7,-12.86 l -5.4,-14.2 c -3.2,-10.04 -8.2,-17.11 -8.6,-32.28 -1.3,-13.42 -2.7,-26.89 -4.1,-40.39 l -1.1,-10.14 c 0.1,-3.83 1.4,-9.11 2,-13.61 l 4.5,-28.11 c 3.1,-18.81 6.2,-37.66 9.3,-56.55 4,-19.92 8,-39.87 12.1,-59.86 32.6,-160.22 75.9,-333.31 126.3,-503.99 53,-178.04 114.5,-351.69 181,-505.02 65.4,-153.56 136.6,-286.44 197.4,-385.14 52.1,-82.16 109.7,-162.56 175.6,-239.26 5.3,-6 10.5,-11.9 15.8,-17.8 -206.2,-4.8 -479.2,-11.5 -830,-10 -68.7,-2.7 -137.5,-3.3 -206.3,-4.2 l -103.1,-1.4 -103.1,0.4 c -233.6,-2.8 -723.7,-8.7 -1235.7,22.6 -255.9,14.8 -517.4,35.9 -755.1,61.3 -237.6,24.7 -450.6,53.5 -611.7,76.5 -141,19.2 -280.7,44.9 -420,73.01 -138.6,30.49 -276.9,62.95 -412.2,103.95 -159.5,47.08 -345.7,108.18 -546.2,191.11 -200.5,82.58 -414.9,188.32 -629,319.55 -106.5,65.74 -212.7,138.87 -316.3,219.61 -26.6,20.71 -53,41.87 -79.3,63.47 l 27.6,12.74 29.7,14.99 59.4,30.03 59.3,30.06 c 19.7,10.22 38.9,21.41 58.4,32.08 l 58.3,32.4 c 19.3,11.05 39.1,21.06 57.9,33.04 l 114,69.63 c 19.1,11.33 37.7,23.87 56.5,36.18 18.7,12.39 37.6,24.43 55.9,37.39 295.9,202.59 562.5,447.88 785.5,730.94 222.4,282.76 401.2,605.31 507.1,955.74 35.8,113.94 66.3,238.84 86.7,373.12 5.3,33.53 8.9,67.8 13.4,102.37 3,34.82 6.7,69.76 8.7,105.75 0.8,18.05 1.7,36.2 2.5,54.46 0.4,9.13 0.8,18.29 1.2,27.47 0,9.19 0,18.41 0,27.66 0,18.49 0,37.08 0,55.78 0.2,18.69 -1.4,37.49 -2.1,56.38 -7,151.02 -29.1,308.71 -77,467.26 -6.1,19.79 -12.2,39.65 -18.3,59.59 -7.2,19.69 -14.5,39.45 -21.7,59.29 l -11.1,29.77 c -3.8,9.89 -8.4,19.62 -12.6,29.45 -8.6,19.61 -17.2,39.29 -25.8,59.04 -9.3,19.52 -19.6,38.77 -29.5,58.24 l -15.1,29.15 c -5.1,9.72 -11.1,19.05 -16.6,28.6 -11.4,18.97 -22.9,38 -34.3,57.09 -12.3,18.66 -25.4,36.98 -38.2,55.51 l -19.4,27.73 c -7,8.99 -14.2,17.79 -21.3,26.7 -14.4,17.73 -28.7,35.58 -43.3,53.21 -15.8,16.82 -31.5,33.69 -47.4,50.59 -8,8.32 -15.6,17.07 -24.1,25.02 l -25.8,23.67 c -17.4,15.62 -34.3,31.84 -52.4,46.87 -18.4,14.71 -36.5,29.97 -55.8,43.63 l -28.7,20.92 -29.5,19.75 c -19.5,13.51 -40.1,25.14 -60.4,37.59 -82,47.71 -169.3,86.28 -259.2,116.39 -90.1,29.31 -182.8,50.48 -276.3,62.75 -187.1,24.48 -377.1,16.39 -561,-20.59 -92.1,-18.41 -182.7,-43.88 -270.8,-76.78 -44.2,-16.05 -87.5,-34.66 -130.3,-54.24 -41.8,-20.7 -84,-40.5 -124.1,-63.98 -41.1,-21.9 -79.9,-47.36 -119.2,-71.85 -37.9,-26.43 -76.7,-51.81 -112.59,-80.54 l -27.33,-21.04 -13.64,-10.54 -13.14,-11.07 c -17.49,-14.82 -34.96,-29.62 -52.4,-44.4 -17.21,-15.02 -33.6,-30.86 -50.37,-46.26 l -24.92,-23.31 -23.88,-24.22 c -128.25,-128.33 -236.18,-271.69 -326.18,-420.77 -21.84,-37.65 -43.97,-74.94 -63.47,-113.32 -20.68,-37.81 -38.6,-76.66 -57.01,-115.02 -34.86,-77.54 -67.18,-155.24 -93.26,-233.9 -54.3,-156.64 -89.77,-314.63 -111.64,-468.89 -3.11,-19.23 -5.16,-38.53 -7.25,-57.74 -2.11,-19.19 -4.21,-38.31 -6.31,-57.33 -1.4,-19.1 -2.81,-38.11 -4.2,-57.03 -1.33,-18.93 -2.97,-37.73 -3.36,-56.54 -1.23,-37.58 -3.14,-74.74 -2.46,-111.62 0.07,-18.43 0.15,-36.75 0.22,-54.98 0.75,-18.23 1.49,-36.36 2.22,-54.4 2.78,-72.11 9.94,-142.47 18.77,-210.79 4.4,-34.17 10.63,-67.7 15.86,-100.85 6.18,-32.76 12.93,-64.74 19.35,-96.4 28.05,-126.03 63.57,-242.23 102.66,-347.44 39.23,-105.2 82.02,-199.4 124.29,-282.61 77.88,-163.65 193.27,-363.07 351.8,-571.11 55.23,-72.67 116.08,-146.09 181.95,-219.34 -47.92,-16.47 -94.38,-32.53 -139.97,-45.98 -28.29,-8.76 -55.95,-17.32 -82.95,-25.67 -26.99,-8.36 -53.79,-15.27 -79.64,-22.66 -207.2,-58.11 -373.22,-94.28 -480.96,-114.86 -156.7,-31.09 -314.52,-58.82 -472.45,-86.96 -41.65,-7.11 -86.41,-15.45 -134.6,-23.13 -48.16,-7.66 -99.41,-15.82 -153.54,-24.44 -107.9,-16.39 -227.32,-32.54 -356.55,-45.88 -129.23,-13.48 -268.29,-23.63 -415.07,-27.28 -73.36,-1.69 -148.69,-2.03 -225.47,0.59 -38.48,0.78 -77.15,3.27 -116.35,5.22 -39.01,3.03 -78.61,5.38 -118.21,9.79 -39.79,3.53 -79.55,9.05 -119.83,14.08 -39.97,6.23 -80.46,12.03 -120.73,19.98 -80.67,15.33 -162.07,33.67 -242.44,58.14 -160.64,48.65 -320.12,115.65 -466.07,209.52 -146.08,93.33 -280.44,210.12 -390.93,349.67 -111.21,138.96 -200.47,298.03 -267.11,467 -48.59,125 -84.76,250.71 -109.21,375.98 -24.67,125.21 -40.22,249.38 -46.79,372.44 -13.4,246.13 2.25,486.85 41.54,726.26 l 7.46,44.91 8.35,44.85 c 5.16,29.88 12.24,60.06 18.5,90.22 6.43,30.17 12.88,60.43 19.36,90.8 7.35,30.26 14.73,60.63 22.14,91.13 14.04,61.08 31.55,122.26 47.9,184.26 7.95,31.03 17.62,62.03 26.49,93.31 9.15,31.26 17.93,62.75 27.48,94.37 76.14,253.16 166.49,518.11 262.51,811.05 48.86,149.19 96.79,298.95 141.42,449.25 45.26,150.02 85.75,301.42 121.65,452.72 72.66,302.6 117.85,613.3 106.78,919.8 -5.71,153 -26.1,305.2 -65.66,451.4 -39.37,146 -98.49,285.9 -176.56,411.2 -77.11,126.3 -174.62,235.9 -280.77,327.3 -106.58,91.3 -222.22,164.4 -339.93,221.6 -14.58,7.5 -29.4,14.2 -44.23,20.7 -14.83,6.5 -29.46,13.5 -44.31,19.6 -29.8,11.9 -59.2,24.3 -89.02,34.5 -59.21,21.8 -118.66,39.1 -177.35,54.6 -117.66,29.6 -233.1,48.6 -344.45,57.9 -222.8,18.6 -428.28,3.3 -608.02,-30.6 -179.3,-36.2 -330.86,-83.5 -457.01,-130.5 -125.21,-48.5 -225.49,-92.9 -298.79,-129.7 -149.2,-72.4 -276.88,-145.8 -386.6,-216.1 -27.76,-17.1 -54.01,-34.5 -79.36,-51.6 -25.34,-17 -50.01,-33.3 -73.43,-49.6 -46.48,-33.2 -90.26,-63.6 -129.61,-93.8 -158.5,-119.4 -263.74,-213.2 -332.54,-283.6 -137.34,-140.9 -128.77,-189 -71.93,-196.6 90.29,-12.2 292.74,84.6 484.07,216.6 189.15,129.5 370.54,245.2 547.8,340.3 177.09,95.3 349.26,171.9 516.05,228.5 10.4,3.6 20.77,7.2 31.09,10.9 10.44,3.1 20.83,6.2 31.19,9.3 20.72,6.2 41.3,12.4 61.72,18.6 20.34,6.6 40.87,11.4 61.2,16.4 20.33,5.1 40.51,10.1 60.55,15.1 79.49,19 156.83,31.4 233.21,39.6 152.46,16 298.06,14.3 432.89,-2 270.24,-31.7 497.05,-117.2 670.24,-228.4 87.11,-55.3 160.54,-117.8 222.96,-182.3 61.71,-65.4 111.89,-133.2 151.46,-202.8 9.89,-17.4 19.65,-34.7 29.29,-51.6 8.29,-17.8 16.47,-35.4 24.54,-52.7 4.08,-8.6 8.13,-17.2 12.16,-25.7 3.37,-8.9 6.73,-17.7 10.06,-26.5 6.7,-17.5 13.32,-34.8 19.87,-51.8 5.93,-17.4 10.73,-35 16.13,-52.2 4.96,-17.3 11.23,-33.9 14.67,-51.4 4.05,-17.3 8.06,-34.3 12.03,-51.2 1.88,-8.5 4.29,-16.7 5.72,-25.3 1.45,-8.5 2.9,-17.1 4.34,-25.5 24.31,-134.9 30.39,-264.1 27.49,-390 -3.13,-126 -15.42,-248.9 -34,-374.7 -4.67,-31.5 -9.27,-63.1 -15.26,-95 -5.56,-32 -10.98,-64.2 -17.78,-96.8 -3.2,-16.3 -6.42,-32.7 -9.66,-49.3 -3.18,-16.5 -7.28,-33.4 -10.88,-50.2 -7.37,-33.9 -14.84,-68.2 -22.44,-103.2 -8.95,-33.9 -23.03,-87.4 -41.67,-158.1 -10.1,-35.4 -21.42,-75.1 -33.91,-118.8 -12.19,-43.7 -27.5,-91.5 -42.9,-143.11 -31.6,-103.18 -69.93,-221.61 -113.61,-353.5 -44.38,-132.75 -93.17,-278.68 -145.63,-435.61 -52.17,-158.34 -107.1,-329.3 -159.6,-512.61 -52.29,-183.32 -102.44,-379.05 -140.83,-586.7 -38.93,-209.63 -62.73,-430.12 -65.77,-657.18 -2.92,-226.98 14.93,-461 62.76,-694.99 23.94,-116.92 55.46,-233.73 95.88,-348.77 40.58,-114.97 90.28,-228.1 149.84,-336.92 59.53,-108.81 129.05,-213.25 208.21,-310.26 79.03,-96.98 168.04,-186.64 263.93,-265.81 95.85,-79.35 198.84,-148.86 305.66,-207.95 106.86,-59.1 217.48,-107.68 328.86,-147.33 223.07,-79.22 448.32,-122.95 664.73,-145.83 216.69,-22.69 425.22,-25.22 622.28,-18.33 197.02,7.59 382.88,24.31 555.49,45.23 43.22,5.01 85.51,10.72 127.05,16.12 41.22,5.78 81.71,11.46 121.43,17.03 39.71,5.35 78.66,11.55 116.8,17.41 38.14,5.99 75.47,11.37 111.94,17.52 72.94,12.66 142.54,23.48 208.36,36.38 32.91,6.17 64.92,12.17 95.97,18 31.05,5.79 61.07,12.47 90.15,18.35 85.09,17.35 169.84,37.76 254.63,57.66 l 126.81,32.58 c 42.33,10.5 84.37,22.72 126.44,34.74 84.34,23.01 167.83,50.26 251.51,76.42 83.03,28.85 166.43,56.31 248.53,88.75 1.5,0.53 2.9,1.13 4.4,1.67 44.7,-40.34 90.8,-80.17 138.6,-119.21 59.9,-49.81 123,-97.45 187.3,-144.85 65,-46.51 131.4,-92.66 200.4,-136.18 17,-11.2 34.4,-21.82 51.9,-32.51 17.5,-10.59 34.8,-21.68 52.5,-31.91 35.5,-20.3 71.1,-40.68 106.8,-61.11 35.5,-20.99 72.2,-39.67 108.8,-58.77 l 54.9,-28.68 c 18.4,-9.57 36.6,-19.32 55.4,-27.93 37.4,-17.78 74.8,-35.58 112.2,-53.39 l 28.1,-13.31 28.5,-12.36 57,-24.71 c 75.6,-34.04 153.1,-62.94 229.7,-93.54 38.5,-14.5 77.4,-27.9 116,-41.9 19.3,-6.9 38.6,-13.8 57.8,-20.7 19.4,-6.4 38.8,-12.7 58.2,-19.1 38.8,-12.5 77.4,-25.1 116,-37.5 38.8,-11.5 77.4,-22.8 115.9,-34.2 19.2,-5.5 38.4,-11.5 57.6,-16.7 19.3,-5.1 38.5,-10.3 57.7,-15.4 38.4,-10.1 76.5,-20.5 114.5,-30.2 38.1,-9.1 76,-18.2 113.6,-27.2 18.9,-4.5 37.6,-9.2 56.3,-13.4 18.8,-4 37.5,-8 56.1,-12.1 37.3,-8 74.2,-16 110.9,-23.9 36.8,-7.1 73.2,-14.1 109.4,-21.1 72.2,-14.7 143.4,-25.8 212.9,-38.2 278.3,-46.6 532.3,-76 747,-97.7 26.8,-3.1 53,-5.6 78.6,-7.7 25.7,-2.3 50.6,-4.5 74.9,-6.6 48.7,-4.2 94.6,-8.2 137.6,-11.9 86.1,-6.1 160.6,-11.3 221.6,-15.6 122.1,-6.6 190.4,-10.2 190.4,-10.2 0,0 21.2,-0.8 60,-2.3 38.9,-0.7 95.4,-1.8 165.9,-3.1 141.1,-2.6 338.4,-1.3 562.8,5.4 224.5,8.4 476,24 725.4,48.7 249.2,25.5 496,60.1 711.7,98.2 46.2,8.4 90.8,16.9 133.8,25.6 l -13.4,-21.8 c -6.2,-10.1 -11.6,-20.4 -17.4,-30.6 l -34.3,-61.3 -17.1,-30.7 c -5.6,-10.3 -10.6,-20.7 -15.9,-31.1 -87.1,-164.9 -157,-335.3 -220.4,-507.2 -16,-42 -33.1,-87 -51.2,-134.5 -9.5,-23.6 -16.9,-48.5 -25.4,-73.7 -8.4,-25.3 -16.9,-51.2 -25.6,-77.6 -8.6,-26.4 -17.5,-53.4 -26.5,-80.9 -4.7,-13.7 -8.6,-27.7 -12.5,-41.8 -4,-14.1 -7.9,-28.3 -12,-42.6 -15.9,-57.4 -32.4,-116.6 -49.2,-177.1 -14.7,-61 -28.8,-123.4 -43.5,-186.8 -7.2,-31.7 -14.5,-63.7 -21.8,-95.8 -6,-32.4 -12,-64.9 -18,-97.6 -11.9,-65.3 -23.9,-131.2 -36,-197.3 -9.1,-66.3 -18.3,-132.8 -27.4,-199 -4.4,-33.1 -8.9,-66.2 -13.3,-99.1 l -3.3,-24.7 -0.4,-3 -0.4,-3.1 c -0.4,-4 -0.7,-8 -0.8,-12.1 -0.4,-8.1 -0.4,-16 0.2,-24.3 2.3,-35.2 14.9,-73.2 37.3,-104.5 21.9,-30.9 50.8,-53.7 81.5,-68 30.7,-14.1 64.2,-20.9 99.6,-18.9 35.1,1.9 73.7,14.3 105.3,36.6 32.7,22.7 54.4,51.9 68,80 l 5.7,11.5 10,20.7 c 13.3,27.5 26.6,54.9 39.8,82.1 13.5,27 27.9,53.4 41.6,79.8 6.8,13.2 13.7,26.4 20.5,39.5 6.8,13.1 14.4,25.7 21.4,38.5 14.3,25.4 28.5,50.6 42.5,75.5 14.1,24.9 29.2,48.8 43.3,72.7 7.2,11.9 14.3,23.8 21.3,35.5 3.5,5.9 7,11.8 10.5,17.6 3.7,5.7 7.3,11.4 11,17.1 114.6,182.9 225.8,333.5 303.7,441.4 21,24.5 44.8,52.3 70.9,82.8 26.8,30 57.1,61.9 89,96.2 32.4,33.9 68.3,68.6 105.1,105.6 19.2,17.8 38.7,36 58.6,54.6 20,18.4 39.9,37.7 61.3,55.9 168.4,149.1 369.4,301.5 569.7,424.4 199.5,124.4 395.3,222.5 541.8,285.7 73.7,30.9 133.5,56.6 176,71.8 42.3,16 65.9,24.9 65.9,24.9 0,0 7.1,3.2 20.5,8.5 13.3,5.2 32.7,12.8 57,22.2 12.1,4.8 25.4,10.1 39.8,15.8 7.1,2.9 14.6,5.9 22.3,9 7.7,2.8 15.7,5.7 24,8.8 32.9,12.2 69.4,25.8 108.4,40.2 39.3,13.4 80.9,28 123.7,43.3 43.2,13.7 87.5,28.5 131.7,43.3 44.6,13.4 89,27.8 132.1,41.6 43.4,12.7 85.3,25.8 124.6,39 39.6,11.8 76.4,23.8 109.2,36 16.3,6.1 31.8,11.9 46.1,17.3 14.3,5.5 27.4,11.1 39.2,16.7 46.9,22.5 72.4,45.5 64.3,67.9 -3.8,10.7 -15.3,21.2 -35.7,31.6"
         style="fill:#040606;fill-opacity:1;fill-rule:nonzero;stroke:none"
         transform="matrix(0.13333333,0,0,-0.13333333,0,1954.6667)" />
    </g>
  </g>
</svg>
